<svg width="418" height="96" viewBox="0 0 418 96" fill="none" xmlns="http://www.w3.org/2000/svg">
<path d="M166.846 80.6865H169.2C169.934 80.6865 170.481 80.8896 170.846 81.2907C171.221 81.6813 171.408 82.2646 171.408 83.0407V87.8115C171.408 88.5771 171.221 89.1605 170.846 89.5615C170.481 89.9521 169.934 90.1449 169.2 90.1449H166.846V80.6865ZM168.325 82.0407V88.7907H169.158C169.393 88.7907 169.58 88.7282 169.721 88.6032C169.856 88.4678 169.929 88.223 169.929 87.874V82.9574C169.929 82.624 169.856 82.3896 169.721 82.249C169.58 82.1136 169.393 82.0407 169.158 82.0407H168.325Z" fill="#253439"/>
<path d="M178.56 84.6865H180.602V86.0199H178.56V88.7907H181.123V90.1449H177.081V80.6865H181.123V82.0407H178.56V84.6865Z" fill="#253439"/>
<path d="M189.005 88.3949L190.151 80.6865H191.505L190.047 90.1449H187.838L186.38 80.6865H187.88L189.005 88.3949Z" fill="#253439"/>
<path d="M198.409 84.6865H200.451V86.0199H198.409V88.7907H200.972V90.1449H196.93V80.6865H200.972V82.0407H198.409V84.6865Z" fill="#253439"/>
<path d="M206.625 80.6865H208.104V88.7907H210.541V90.1449H206.625V80.6865Z" fill="#253439"/>
<path d="M217.309 87.9779C217.309 88.3112 217.377 88.5508 217.518 88.6862C217.653 88.8268 217.841 88.8945 218.08 88.8945C218.315 88.8945 218.502 88.8268 218.643 88.6862C218.778 88.5508 218.851 88.3112 218.851 87.9779V82.8737C218.851 82.5299 218.778 82.2852 218.643 82.1445C218.502 82.0091 218.315 81.9362 218.08 81.9362C217.841 81.9362 217.653 82.0091 217.518 82.1445C217.377 82.2852 217.309 82.5299 217.309 82.8737V87.9779ZM215.83 82.957C215.83 82.1966 216.023 81.6133 216.414 81.207C216.799 80.7904 217.356 80.582 218.08 80.582C218.815 80.582 219.377 80.7904 219.768 81.207C220.153 81.6133 220.351 82.1966 220.351 82.957V87.8737C220.351 88.6393 220.153 89.2279 219.768 89.6445C219.377 90.0508 218.815 90.2487 218.08 90.2487C217.356 90.2487 216.799 90.0508 216.414 89.6445C216.023 89.2279 215.83 88.6393 215.83 87.8737V82.957Z" fill="#253439"/>
<path d="M228.216 80.6865C228.966 80.6865 229.518 80.8896 229.882 81.2907C230.242 81.6813 230.424 82.2646 230.424 83.0407V84.249C230.424 85.0303 230.242 85.6188 229.882 86.0199C229.518 86.4105 228.966 86.6032 228.216 86.6032H227.507V90.1449H226.028V80.6865H228.216ZM227.507 82.0407V85.249H228.216C228.45 85.249 228.632 85.1865 228.757 85.0615C228.882 84.9365 228.945 84.7021 228.945 84.3532V82.9365C228.945 82.5928 228.882 82.3532 228.757 82.2282C228.632 82.1032 228.45 82.0407 228.216 82.0407H227.507Z" fill="#253439"/>
<path d="M237.324 84.6865H239.366V86.0199H237.324V88.7907H239.886V90.1449H235.845V80.6865H239.886V82.0407H237.324V84.6865Z" fill="#253439"/>
<path d="M248.644 90.1449C248.628 90.0771 248.607 90.0199 248.581 89.9782C248.566 89.9261 248.55 89.8532 248.54 89.7699C248.524 89.6865 248.508 89.5824 248.498 89.4574C248.498 89.3324 248.498 89.1761 248.498 88.9782V87.499C248.498 87.0563 248.42 86.7438 248.269 86.5615C248.112 86.3844 247.873 86.2907 247.54 86.2907H247.019V90.1449H245.54V80.6865H247.769C248.545 80.6865 249.107 80.8688 249.456 81.2282C249.8 81.5928 249.977 82.1396 249.977 82.874V83.6032C249.977 84.5771 249.649 85.2178 248.998 85.5199C249.383 85.6761 249.649 85.9261 249.79 86.2699C249.925 86.6188 249.998 87.0407 249.998 87.5407V88.999C249.998 89.2386 250.003 89.4469 250.019 89.624C250.029 89.7907 250.081 89.9678 250.165 90.1449H248.644ZM247.019 82.0407V84.9574H247.602C247.878 84.9574 248.092 84.8896 248.248 84.749C248.415 84.598 248.498 84.3324 248.498 83.9574V83.0199C248.498 82.6761 248.435 82.4261 248.31 82.2699C248.185 82.1188 247.998 82.0407 247.748 82.0407H247.019Z" fill="#253439"/>
<path d="M255.506 82.957C255.506 82.1966 255.683 81.6133 256.048 81.207C256.407 80.7904 256.954 80.582 257.694 80.582C258.412 80.582 258.954 80.7904 259.319 81.207C259.694 81.6133 259.881 82.1966 259.881 82.957V83.332H258.464V82.8737C258.464 82.5299 258.402 82.2852 258.277 82.1445C258.152 82.0091 257.97 81.9362 257.735 81.9362C257.496 81.9362 257.308 82.0091 257.173 82.1445C257.048 82.2852 256.985 82.5299 256.985 82.8737C256.985 83.1966 257.053 83.4779 257.194 83.7279C257.345 83.9779 257.527 84.2174 257.735 84.4362C257.954 84.6445 258.194 84.8633 258.444 85.082C258.694 85.306 258.923 85.5508 259.131 85.8112C259.35 86.0768 259.532 86.3737 259.673 86.707C259.808 87.0404 259.881 87.431 259.881 87.8737C259.881 88.6393 259.694 89.2279 259.319 89.6445C258.954 90.0508 258.407 90.2487 257.673 90.2487C256.949 90.2487 256.402 90.0508 256.027 89.6445C255.652 89.2279 255.464 88.6393 255.464 87.8737V87.2279H256.86V87.9779C256.86 88.3112 256.928 88.5508 257.069 88.6862C257.204 88.8268 257.391 88.8945 257.631 88.8945C257.865 88.8945 258.053 88.8268 258.194 88.6862C258.329 88.5508 258.402 88.3112 258.402 87.9779C258.402 87.6445 258.324 87.3633 258.173 87.1237C258.032 86.8737 257.85 86.6393 257.631 86.4154C257.423 86.1966 257.194 85.9727 256.944 85.7487C256.704 85.5299 256.475 85.2904 256.256 85.0404C256.048 84.7799 255.865 84.4779 255.714 84.1445C255.574 83.8112 255.506 83.4154 255.506 82.957Z" fill="#253439"/>
<path d="M276.602 86.6237V87.8737C276.602 88.6393 276.414 89.2279 276.039 89.6445C275.664 90.0508 275.107 90.2487 274.372 90.2487C273.648 90.2487 273.102 90.0508 272.727 89.6445C272.352 89.2279 272.164 88.6393 272.164 87.8737V82.957C272.164 82.1966 272.352 81.6133 272.727 81.207C273.102 80.7904 273.648 80.582 274.372 80.582C275.107 80.582 275.664 80.7904 276.039 81.207C276.414 81.6133 276.602 82.1966 276.602 82.957V83.8737H275.185V82.8737C275.185 82.5299 275.112 82.2852 274.977 82.1445C274.836 82.0091 274.648 81.9362 274.414 81.9362C274.174 81.9362 273.987 82.0091 273.852 82.1445C273.711 82.2852 273.643 82.5299 273.643 82.8737V87.9779C273.643 88.3112 273.711 88.5508 273.852 88.6862C273.987 88.8268 274.174 88.8945 274.414 88.8945C274.648 88.8945 274.836 88.8268 274.977 88.6862C275.112 88.5508 275.185 88.3112 275.185 87.9779V86.6237H276.602Z" fill="#253439"/>
<path d="M283.581 87.9779C283.581 88.3112 283.649 88.5508 283.789 88.6862C283.925 88.8268 284.112 88.8945 284.352 88.8945C284.586 88.8945 284.774 88.8268 284.914 88.6862C285.05 88.5508 285.123 88.3112 285.123 87.9779V82.8737C285.123 82.5299 285.05 82.2852 284.914 82.1445C284.774 82.0091 284.586 81.9362 284.352 81.9362C284.112 81.9362 283.925 82.0091 283.789 82.1445C283.649 82.2852 283.581 82.5299 283.581 82.8737V87.9779ZM282.102 82.957C282.102 82.1966 282.295 81.6133 282.685 81.207C283.071 80.7904 283.628 80.582 284.352 80.582C285.086 80.582 285.649 80.7904 286.039 81.207C286.425 81.6133 286.623 82.1966 286.623 82.957V87.8737C286.623 88.6393 286.425 89.2279 286.039 89.6445C285.649 90.0508 285.086 90.2487 284.352 90.2487C283.628 90.2487 283.071 90.0508 282.685 89.6445C282.295 89.2279 282.102 88.6393 282.102 87.8737V82.957Z" fill="#253439"/>
<path d="M293.654 87.9779C293.654 88.3112 293.722 88.5508 293.862 88.6862C293.998 88.8268 294.185 88.8945 294.425 88.8945C294.659 88.8945 294.847 88.8268 294.987 88.6862C295.123 88.5508 295.196 88.3112 295.196 87.9779V82.8737C295.196 82.5299 295.123 82.2852 294.987 82.1445C294.847 82.0091 294.659 81.9362 294.425 81.9362C294.185 81.9362 293.998 82.0091 293.862 82.1445C293.722 82.2852 293.654 82.5299 293.654 82.8737V87.9779ZM292.175 82.957C292.175 82.1966 292.368 81.6133 292.758 81.207C293.144 80.7904 293.701 80.582 294.425 80.582C295.159 80.582 295.722 80.7904 296.112 81.207C296.498 81.6133 296.696 82.1966 296.696 82.957V87.8737C296.696 88.6393 296.498 89.2279 296.112 89.6445C295.722 90.0508 295.159 90.2487 294.425 90.2487C293.701 90.2487 293.144 90.0508 292.758 89.6445C292.368 89.2279 292.175 88.6393 292.175 87.8737V82.957Z" fill="#253439"/>
<path d="M304.56 80.6865C305.31 80.6865 305.862 80.8896 306.227 81.2907C306.586 81.6813 306.769 82.2646 306.769 83.0407V84.249C306.769 85.0303 306.586 85.6188 306.227 86.0199C305.862 86.4105 305.31 86.6032 304.56 86.6032H303.852V90.1449H302.373V80.6865H304.56ZM303.852 82.0407V85.249H304.56C304.795 85.249 304.977 85.1865 305.102 85.0615C305.227 84.9365 305.289 84.7021 305.289 84.3532V82.9365C305.289 82.5928 305.227 82.3532 305.102 82.2282C304.977 82.1032 304.795 82.0407 304.56 82.0407H303.852Z" fill="#253439"/>
<path d="M72.5597 22.5C74.5441 22.5 76.5077 22.7292 78.4556 23.1875C80.3983 23.6354 81.841 24.0833 82.7889 24.5417L84.2264 25.2083L80.2889 33.0625C77.5806 31.6198 75.0024 30.8958 72.5597 30.8958C71.2108 30.8958 70.2524 31.0417 69.6847 31.3333C69.1118 31.625 68.8306 32.1823 68.8306 33C68.8306 33.1823 68.8514 33.3646 68.8931 33.5417C68.9451 33.724 69.0389 33.8958 69.1639 34.0625C69.2993 34.2188 69.4243 34.349 69.5389 34.4583C69.6639 34.5729 69.8566 34.6979 70.1222 34.8333C70.3983 34.974 70.6118 35.0781 70.7681 35.1458C70.9347 35.2031 71.1952 35.3021 71.5597 35.4375C71.9191 35.5781 72.1899 35.6823 72.3722 35.75C72.5493 35.8229 72.8514 35.9271 73.2681 36.0625C73.6952 36.1875 74.0285 36.2708 74.2681 36.3125C75.6535 36.7292 76.8722 37.1875 77.9139 37.6875C78.9556 38.1771 80.0493 38.849 81.2056 39.7083C82.3566 40.5729 83.2472 41.6562 83.8722 42.9583C84.5077 44.2656 84.8306 45.7604 84.8306 47.4375C84.8306 55.3438 79.341 59.2917 68.3722 59.2917C65.8827 59.2917 63.5233 58.9062 61.2889 58.1458C59.0493 57.3698 57.4347 56.599 56.4347 55.8333L54.9556 54.6042L59.8306 46.4167C60.1899 46.7396 60.6639 47.1146 61.2472 47.5417C61.841 47.9583 62.9035 48.5417 64.4347 49.2917C65.9764 50.0417 67.3097 50.4167 68.4347 50.4167C70.9191 50.4167 72.1639 49.5781 72.1639 47.8958C72.1639 47.1354 71.841 46.5365 71.2056 46.1042C70.5806 45.6771 69.5077 45.1875 67.9972 44.6458C66.4816 44.1042 65.2941 43.6146 64.4347 43.1667C62.2681 42.0417 60.5493 40.7708 59.2889 39.3542C58.0233 37.9271 57.3931 36.0365 57.3931 33.6875C57.3931 30.1615 58.7524 27.4167 61.4764 25.4583C64.2108 23.4896 67.9035 22.5 72.5597 22.5Z" fill="#253439"/>
<path d="M120.67 42.5625H95.462C95.462 44.9948 96.2537 46.8021 97.837 47.9792C99.4203 49.1458 101.134 49.7292 102.983 49.7292C104.926 49.7292 106.462 49.474 107.587 48.9583C108.722 48.4323 110.014 47.4062 111.462 45.875L120.129 50.2083C116.514 56.2656 110.509 59.2917 102.108 59.2917C96.8682 59.2917 92.3787 57.5 88.6287 53.9167C84.8787 50.3229 83.0037 45.9948 83.0037 40.9375C83.0037 35.8698 84.8787 31.5312 88.6287 27.9167C92.3787 24.3073 96.8682 22.5 102.108 22.5C107.618 22.5 112.097 24.0938 115.545 27.2708C119.004 30.4531 120.733 35 120.733 40.9167C120.733 41.7396 120.712 42.2865 120.67 42.5625ZM95.7953 35.9167H109.024C108.743 34.1146 108.03 32.724 106.879 31.75C105.722 30.7812 104.243 30.2917 102.441 30.2917C100.452 30.2917 98.8682 30.8125 97.6912 31.8542C96.5245 32.8958 95.8891 34.25 95.7953 35.9167Z" fill="#253439"/>
<path d="M129.884 23.5205L138.343 42.4163L146.822 23.5205H161.051L142.405 58.2705H134.28L115.655 23.5205H129.884Z" fill="#253439"/>
<path d="M193.636 42.5625H168.428C168.428 44.9948 169.219 46.8021 170.803 47.9792C172.386 49.1458 174.1 49.7292 175.949 49.7292C177.891 49.7292 179.428 49.474 180.553 48.9583C181.688 48.4323 182.98 47.4062 184.428 45.875L193.094 50.2083C189.48 56.2656 183.475 59.2917 175.074 59.2917C169.834 59.2917 165.344 57.5 161.594 53.9167C157.844 50.3229 155.969 45.9948 155.969 40.9375C155.969 35.8698 157.844 31.5312 161.594 27.9167C165.344 24.3073 169.834 22.5 175.074 22.5C180.584 22.5 185.063 24.0938 188.511 27.2708C191.969 30.4531 193.699 35 193.699 40.9167C193.699 41.7396 193.678 42.2865 193.636 42.5625ZM168.761 35.9167H181.99C181.709 34.1146 180.996 32.724 179.844 31.75C178.688 30.7812 177.209 30.2917 175.407 30.2917C173.417 30.2917 171.834 30.8125 170.657 31.8542C169.49 32.8958 168.855 34.25 168.761 35.9167Z" fill="#253439"/>
<path d="M194.038 58.2708V23.5208H206.038V27.1667H206.163C209.288 24.0573 212.606 22.5 216.121 22.5C217.84 22.5 219.548 22.7292 221.246 23.1875C222.939 23.6354 224.564 24.3333 226.121 25.2917C227.673 26.2396 228.939 27.5781 229.913 29.3125C230.882 31.0521 231.371 33.0729 231.371 35.375V58.2708H219.371V38.625C219.371 36.8229 218.793 35.2448 217.642 33.8958C216.501 32.5365 215.001 31.8542 213.142 31.8542C211.335 31.8542 209.694 32.5573 208.225 33.9583C206.767 35.349 206.038 36.9062 206.038 38.625V58.2708H194.038Z" fill="#253439"/>
<path d="M233.536 58.2708V0H245.536V27.1667H245.661C248.786 24.0573 252.103 22.5 255.619 22.5C257.338 22.5 259.046 22.7292 260.744 23.1875C262.437 23.6354 264.062 24.3333 265.619 25.2917C267.171 26.2396 268.437 27.5781 269.411 29.3125C270.379 31.0521 270.869 33.0729 270.869 35.375V58.2708H258.869V38.625C258.869 36.8229 258.291 35.2448 257.14 33.8958C255.999 32.5365 254.499 31.8542 252.64 31.8542C250.833 31.8542 249.192 32.5573 247.723 33.9583C246.265 35.349 245.536 36.9062 245.536 38.625V58.2708H233.536Z" fill="#253439"/>
<path d="M308.2 42.5625H282.992C282.992 44.9948 283.783 46.8021 285.367 47.9792C286.95 49.1458 288.664 49.7292 290.513 49.7292C292.455 49.7292 293.992 49.474 295.117 48.9583C296.252 48.4323 297.544 47.4062 298.992 45.875L307.658 50.2083C304.044 56.2656 298.039 59.2917 289.638 59.2917C284.398 59.2917 279.908 57.5 276.158 53.9167C272.408 50.3229 270.533 45.9948 270.533 40.9375C270.533 35.8698 272.408 31.5312 276.158 27.9167C279.908 24.3073 284.398 22.5 289.638 22.5C295.148 22.5 299.627 24.0938 303.075 27.2708C306.533 30.4531 308.263 35 308.263 40.9167C308.263 41.7396 308.242 42.2865 308.2 42.5625ZM283.325 35.9167H296.554C296.273 34.1146 295.559 32.724 294.408 31.75C293.252 30.7812 291.773 30.2917 289.971 30.2917C287.981 30.2917 286.398 30.8125 285.221 31.8542C284.054 32.8958 283.419 34.25 283.325 35.9167Z" fill="#253439"/>
<path d="M310.977 53.9792C307.727 50.4271 306.102 46.0781 306.102 40.9375C306.102 35.7865 307.727 31.4271 310.977 27.8542C314.227 24.2865 318.357 22.5 323.373 22.5C327.982 22.5 331.774 23.9479 334.748 26.8333V23.5208H346.748V58.2708H334.893V54.3333H334.748C331.774 57.6406 327.982 59.2917 323.373 59.2917C318.357 59.2917 314.227 57.5208 310.977 53.9792ZM321.164 35.0417C319.607 36.5729 318.831 38.5365 318.831 40.9375C318.831 43.3281 319.571 45.2812 321.06 46.7917C322.56 48.3073 324.524 49.0625 326.956 49.0625C329.315 49.0625 331.248 48.3021 332.748 46.7708C334.258 45.2292 335.018 43.2812 335.018 40.9167C335.018 38.5312 334.237 36.5729 332.685 35.0417C331.128 33.5 329.216 32.7292 326.956 32.7292C324.664 32.7292 322.732 33.5 321.164 35.0417Z" fill="#253439"/>
<path d="M351.965 53.9792C348.715 50.4271 347.09 46.0781 347.09 40.9375C347.09 35.7865 348.715 31.4271 351.965 27.8542C355.215 24.2865 359.345 22.5 364.361 22.5C368.97 22.5 372.762 23.9479 375.736 26.8333V0H387.736V58.2708H375.882V54.3333H375.736C372.762 57.6406 368.97 59.2917 364.361 59.2917C359.345 59.2917 355.215 57.5208 351.965 53.9792ZM362.153 35.0417C360.595 36.5729 359.819 38.5365 359.819 40.9375C359.819 43.3281 360.559 45.2812 362.048 46.7917C363.548 48.3073 365.512 49.0625 367.944 49.0625C370.304 49.0625 372.236 48.3021 373.736 46.7708C375.246 45.2292 376.007 43.2812 376.007 40.9167C376.007 38.5312 375.226 36.5729 373.673 35.0417C372.116 33.5 370.205 32.7292 367.944 32.7292C365.653 32.7292 363.72 33.5 362.153 35.0417Z" fill="#253439"/>
<path d="M405.683 22.5C407.667 22.5 409.63 22.7292 411.578 23.1875C413.521 23.6354 414.964 24.0833 415.912 24.5417L417.349 25.2083L413.412 33.0625C410.703 31.6198 408.125 30.8958 405.683 30.8958C404.334 30.8958 403.375 31.0417 402.808 31.3333C402.235 31.625 401.953 32.1823 401.953 33C401.953 33.1823 401.974 33.3646 402.016 33.5417C402.068 33.724 402.162 33.8958 402.287 34.0625C402.422 34.2188 402.547 34.349 402.662 34.4583C402.787 34.5729 402.979 34.6979 403.245 34.8333C403.521 34.974 403.735 35.0781 403.891 35.1458C404.058 35.2031 404.318 35.3021 404.683 35.4375C405.042 35.5781 405.313 35.6823 405.495 35.75C405.672 35.8229 405.974 35.9271 406.391 36.0625C406.818 36.1875 407.151 36.2708 407.391 36.3125C408.776 36.7292 409.995 37.1875 411.037 37.6875C412.078 38.1771 413.172 38.849 414.328 39.7083C415.479 40.5729 416.37 41.6562 416.995 42.9583C417.63 44.2656 417.953 45.7604 417.953 47.4375C417.953 55.3438 412.464 59.2917 401.495 59.2917C399.005 59.2917 396.646 58.9062 394.412 58.1458C392.172 57.3698 390.558 56.599 389.558 55.8333L388.078 54.6042L392.953 46.4167C393.313 46.7396 393.787 47.1146 394.37 47.5417C394.964 47.9583 396.026 48.5417 397.558 49.2917C399.099 50.0417 400.433 50.4167 401.558 50.4167C404.042 50.4167 405.287 49.5781 405.287 47.8958C405.287 47.1354 404.964 46.5365 404.328 46.1042C403.703 45.6771 402.63 45.1875 401.12 44.6458C399.604 44.1042 398.417 43.6146 397.558 43.1667C395.391 42.0417 393.672 40.7708 392.412 39.3542C391.146 37.9271 390.516 36.0365 390.516 33.6875C390.516 30.1615 391.875 27.4167 394.599 25.4583C397.334 23.4896 401.026 22.5 405.683 22.5Z" fill="#253439"/>
<mask id="mask0_602_235" style="mask-type:luminance" maskUnits="userSpaceOnUse" x="0" y="0" width="41" height="56">
<path d="M0 0.0454102H41V55.936H0V0.0454102Z" fill="white"/>
</mask>
<g mask="url(#mask0_602_235)">
<path d="M41.0365 0.0454102V27.3996L0.010498 54.7537V27.3996L41.0365 0.0454102Z" fill="#7C898B"/>
</g>
<mask id="mask1_602_235" style="mask-type:luminance" maskUnits="userSpaceOnUse" x="0" y="39" width="41" height="57">
<path d="M0 39.936H41V95.936H0V39.936Z" fill="white"/>
</mask>
<g mask="url(#mask1_602_235)">
<path d="M41.0365 41.0767V68.4256L0.010498 95.7798V68.4256L41.0365 41.0767Z" fill="#253439"/>
</g>
<mask id="mask2_602_235" style="mask-type:luminance" maskUnits="userSpaceOnUse" x="0" y="26" width="41" height="44">
<path d="M0 26.6025H41V69.2692H0V26.6025Z" fill="white"/>
</mask>
<g mask="url(#mask2_602_235)">
<path d="M0.010498 54.7536L41.0365 68.4255V41.0765L0.010498 27.3994" fill="#A6A6A6"/>
</g>
</svg>
